<?xml version="1.0" encoding="utf-8"?>
<!-- Generator: Adobe Illustrator 16.2.1, SVG Export Plug-In . SVG Version: 6.00 Build 0)  -->
<!DOCTYPE svg PUBLIC "-//W3C//DTD SVG 1.1//EN" "http://www.w3.org/Graphics/SVG/1.1/DTD/svg11.dtd">
<svg version="1.1" id="Layer_1" xmlns="http://www.w3.org/2000/svg" xmlns:xlink="http://www.w3.org/1999/xlink" x="0px" y="0px"
	 width="300px" height="300px" viewBox="0 0 300 300" enable-background="new 0 0 300 300" xml:space="preserve">
<line fill="#FFFFFF" stroke="#000000" stroke-width="0.9649" stroke-miterlimit="10" x1="202.7" y1="120.4" x2="120.5" y2="120.4"/>
<path fill="#FFFFFF" stroke="#000000" stroke-width="0.9649" stroke-miterlimit="10" d="M202.7,120.4"/>
<path fill="#FFFFFF" stroke="#000000" stroke-width="0.9649" stroke-miterlimit="10" d="M202.7,154.5"/>
<path fill="#FFFFFF" stroke="#000000" stroke-width="0.9649" stroke-miterlimit="10" d="M202.7,154.5"/>
<path fill="#FFFFFF" stroke="#000000" stroke-width="0.9649" stroke-miterlimit="10" d="M224.6,208.2"/>
<g>
	<path fill="#FFFFFF" d="M224.6,208.2"/>
	<path fill="none" stroke="#000000" stroke-width="0.9649" stroke-miterlimit="10" d="M224.6,208.2"/>
</g>
<g>
	<path fill="#FFFFFF" d="M202.7,208.2"/>
	<path fill="none" stroke="#000000" stroke-width="0.9649" stroke-miterlimit="10" d="M202.7,208.2"/>
</g>
<path fill="#27585F" d="M120.5,126.2H93.4v80.7c0,0-6.9,97.3,109.3,78.5c7.9-1.4-0.3-82.6-0.3-82.6l-81.8-3.8V126.2"/>
<rect x="93.3" y="65.5" fill="#0C2B2F" width="109.3" height="28.3"/>
<ellipse fill="#0C2B2F" cx="148" cy="65.5" rx="54.7" ry="53.3"/>
<g>
	<path fill="#0C2B2F" d="M264.6,120.4c0,0,0-6.1,0-13.6s-9.4-13.6-20.9-13.6H56.3c-11.5,0-20.9,6.1-20.9,13.6s0,13.6,0,13.6"/>
</g>
<path fill="none" stroke="#000000" stroke-miterlimit="10" d="M120.5,120.4"/>
<path fill="none" stroke="#000000" stroke-miterlimit="10" d="M202.7,120.4"/>
<polyline fill="#2FBFD5" points="52.9,143.7 52.9,131.2 93.4,131.2 "/>
<polyline fill="#2FBFD5" points="91.4,133.5 79.9,165.6 64.9,162.3 "/>
<path fill="#FEFFFF" d="M118.5,131.2c0,0-0.7,55.5,1.2,66.7c1.2,7.2,102.1,4.2,102.1,4.2l-19.2-46.3l-0.3-24.6"/>
<rect x="93.4" y="120.4" fill="#2FBFD5" width="109" height="10.9"/>
<rect x="93.3" y="146.4" fill="#0C2B2F" width="109.3" height="6.2"/>
<path fill="#0C2B2F" d="M143.7,152.9c0,9,13.2,16.3,29.4,16.3c16.2,0,29.4-7.3,29.4-16.3c0-0.1,0-0.2,0-0.3h-58.8
	C143.7,152.7,143.7,152.8,143.7,152.9z"/>
</svg>
